<svg width="23" height="25" viewBox="0 0 23 25" fill="none" xmlns="http://www.w3.org/2000/svg">
<g clip-path="url(#clip0)">
<path d="M12.7704 12.5008L22.7366 1.6679C23.0875 1.2865 23.0875 0.668141 22.7366 0.286794C22.3857 -0.0945524 21.8168 -0.0946013 21.466 0.286794L11.4997 11.1197L1.53353 0.286794C1.18265 -0.0946013 0.613758 -0.0946013 0.262919 0.286794C-0.0879202 0.66819 -0.0879652 1.28655 0.262919 1.6679L10.2291 12.5007L0.262919 23.3336C-0.0879652 23.715 -0.0879652 24.3334 0.262919 24.7147C0.438338 24.9054 0.668293 25.0007 0.898248 25.0007C1.1282 25.0007 1.35811 24.9054 1.53358 24.7147L11.4997 13.8819L21.466 24.7147C21.6414 24.9054 21.8713 25.0007 22.1013 25.0007C22.3312 25.0007 22.5611 24.9054 22.7366 24.7147C23.0875 24.3333 23.0875 23.715 22.7366 23.3336L12.7704 12.5008Z" fill="black"/>
</g>
<defs>
<clipPath id="clip0">
<rect width="23" height="25" fill="white"/>
</clipPath>
</defs>
</svg>
