<svg id="Icons" height="512" viewBox="0 0 74 74" width="512" xmlns="http://www.w3.org/2000/svg"><path d="m59.43 63.54a1 1 0 0 1 -.658-1.754c.549-.478 1.075-.967 1.561-1.453a33.118 33.118 0 0 0 8.551-31.875 1 1 0 1 1 1.931-.516 35.117 35.117 0 0 1 -9.068 33.805c-.518.519-1.077 1.039-1.66 1.547a1 1 0 0 1 -.657.246z"/><path d="m41.259 71.72a1 1 0 0 1 -.112-1.993 27.886 27.886 0 0 0 2.819-.474 1 1 0 0 1 .428 1.954 30.2 30.2 0 0 1 -3.022.507 1.084 1.084 0 0 1 -.113.006z"/><path d="m33.851 71.85c-.031 0-.062 0-.093 0a35.008 35.008 0 0 1 -21.505-10.1 1 1 0 0 1 1.414-1.414 33.011 33.011 0 0 0 20.274 9.521 1 1 0 0 1 -.09 2z"/><path d="m50.841 69.061a1 1 0 0 1 -.407-1.915 27.822 27.822 0 0 0 2.578-1.293 1 1 0 1 1 1 1.734 29.543 29.543 0 0 1 -2.762 1.387.992.992 0 0 1 -.409.087z"/><path d="m3.154 41.259a1 1 0 0 1 -.994-.905 35 35 0 0 1 59.589-28.1 1 1 0 1 1 -1.414 1.415 33 33 0 0 0 -56.185 26.495 1 1 0 0 1 -.9 1.09c-.032.003-.064.005-.096.005z"/><path d="m61.041 13.958h-7.995a1 1 0 0 1 0-2h6.995v-6.995a1 1 0 1 1 2 0v8a1 1 0 0 1 -1 .995z"/><path d="m12.958 70.037a1 1 0 0 1 -1-1v-8a1 1 0 0 1 1-1h7.995a1 1 0 1 1 0 2h-6.995v7a1 1 0 0 1 -1 1z"/><path d="m39.542 58.7h-5.084a1.631 1.631 0 0 1 -1.621-1.448l-.25-2.223a19.088 19.088 0 0 1 -5.763-2.384l-1.747 1.392a1.629 1.629 0 0 1 -2.171-.122l-3.594-3.594a1.631 1.631 0 0 1 -.123-2.17l1.395-1.751a19.059 19.059 0 0 1 -2.384-5.764l-2.223-.25a1.631 1.631 0 0 1 -1.449-1.622v-5.083a1.629 1.629 0 0 1 1.45-1.621l2.222-.25a19.065 19.065 0 0 1 2.385-5.763l-1.395-1.747a1.632 1.632 0 0 1 .123-2.172l3.593-3.593a1.631 1.631 0 0 1 2.172-.122l1.746 1.393a19.065 19.065 0 0 1 5.763-2.385l.25-2.222a1.631 1.631 0 0 1 1.621-1.449h5.084a1.631 1.631 0 0 1 1.621 1.45l.25 2.222a19.065 19.065 0 0 1 5.763 2.385l1.747-1.393a1.631 1.631 0 0 1 2.171.122l3.594 3.594a1.633 1.633 0 0 1 .123 2.171l-1.4 1.747a19.065 19.065 0 0 1 2.389 5.762l2.223.25a1.629 1.629 0 0 1 1.449 1.621v5.083a1.631 1.631 0 0 1 -1.449 1.622l-2.223.25a19.059 19.059 0 0 1 -2.384 5.764l1.394 1.747a1.632 1.632 0 0 1 -.123 2.172l-3.593 3.591a1.63 1.63 0 0 1 -2.172.122l-1.746-1.392a19.088 19.088 0 0 1 -5.763 2.384l-.25 2.222a1.631 1.631 0 0 1 -1.621 1.454zm-4.754-2h4.424l.294-2.611a1 1 0 0 1 .8-.87 17.119 17.119 0 0 0 6.367-2.634 1 1 0 0 1 1.182.047l2.053 1.637 3.129-3.13-1.637-2.056a1 1 0 0 1 -.048-1.184 17.111 17.111 0 0 0 2.636-6.366 1 1 0 0 1 .869-.8l2.612-.294v-4.428l-2.612-.3a1 1 0 0 1 -.869-.8 17.116 17.116 0 0 0 -2.636-6.367 1 1 0 0 1 .048-1.183l1.637-2.052-3.129-3.129-2.053 1.636a1 1 0 0 1 -1.182.047 17.136 17.136 0 0 0 -6.367-2.634 1 1 0 0 1 -.8-.87l-.294-2.611h-4.424l-.294 2.611a1 1 0 0 1 -.8.87 17.136 17.136 0 0 0 -6.367 2.634 1 1 0 0 1 -1.182-.047l-2.053-1.636-3.129 3.129 1.637 2.054a1 1 0 0 1 .048 1.183 17.116 17.116 0 0 0 -2.636 6.367 1 1 0 0 1 -.869.8l-2.612.3v4.424l2.612.294a1 1 0 0 1 .869.8 17.111 17.111 0 0 0 2.632 6.369 1 1 0 0 1 -.048 1.184l-1.637 2.051 3.129 3.13 2.053-1.637a1 1 0 0 1 1.182-.047 17.119 17.119 0 0 0 6.367 2.634 1 1 0 0 1 .8.87z"/><path d="m37 49.521a13.3 13.3 0 1 1 13.3-13.3 13.313 13.313 0 0 1 -13.3 13.3zm0-24.6a11.3 11.3 0 1 0 11.3 11.3 11.312 11.312 0 0 0 -11.3-11.297z"/></svg>