<svg width="19" height="25" viewBox="0 0 19 25" fill="none" xmlns="http://www.w3.org/2000/svg">
<path d="M10.0142 14.9341H4.16943V25H0.871094V0.117188H9.1084C11.9111 0.117188 14.0645 0.755208 15.5684 2.03125C17.0837 3.30729 17.8413 5.16439 17.8413 7.60254C17.8413 9.15202 17.4198 10.5021 16.5767 11.6528C15.745 12.8035 14.5828 13.6637 13.0903 14.2334L18.9351 24.7949V25H15.4146L10.0142 14.9341ZM4.16943 12.251H9.21094C10.8402 12.251 12.1333 11.8294 13.0903 10.9863C14.0588 10.1432 14.543 9.0153 14.543 7.60254C14.543 6.06445 14.0815 4.88525 13.1587 4.06494C12.2472 3.24463 10.9256 2.82878 9.19385 2.81738H4.16943V12.251Z" fill="black" fill-opacity="0.74"/>
</svg>
